<svg width="28" height="28" viewBox="0 0 28 28" fill="none" xmlns="http://www.w3.org/2000/svg">
<path d="M0 6C0 2.68629 2.68629 0 6 0H22C25.3137 0 28 2.68629 28 6V22C28 25.3137 25.3137 28 22 28H6C2.68629 28 0 25.3137 0 22V6Z" fill="white"/>
<path d="M4 4H24V24H4V4Z" fill="white"/>
<path d="M8.99999 19.8333C8.99999 20.75 9.74999 21.5 10.6667 21.5H17.3333C18.25 21.5 19 20.75 19 19.8333V11.5C19 10.5833 18.25 9.83333 17.3333 9.83333H10.6667C9.74999 9.83333 8.99999 10.5833 8.99999 11.5V19.8333ZM19 7.33333H16.9167L16.325 6.74167C16.175 6.59167 15.9583 6.5 15.7417 6.5H12.2583C12.0417 6.5 11.825 6.59167 11.675 6.74167L11.0833 7.33333H8.99999C8.54166 7.33333 8.16666 7.70833 8.16666 8.16667C8.16666 8.625 8.54166 9 8.99999 9H19C19.4583 9 19.8333 8.625 19.8333 8.16667C19.8333 7.70833 19.4583 7.33333 19 7.33333Z" fill="#F76659"/>
<path d="M6 1H22V-1H6V1ZM27 6V22H29V6H27ZM22 27H6V29H22V27ZM1 22V6H-1V22H1ZM6 27C3.23858 27 1 24.7614 1 22H-1C-1 25.866 2.13401 29 6 29V27ZM27 22C27 24.7614 24.7614 27 22 27V29C25.866 29 29 25.866 29 22H27ZM22 1C24.7614 1 27 3.23858 27 6H29C29 2.13401 25.866 -1 22 -1V1ZM6 -1C2.13401 -1 -1 2.13401 -1 6H1C1 3.23858 3.23858 1 6 1V-1Z" fill="#E5E9EB"/>
</svg>
